<svg width="250" height="48" viewBox="0 0 250 48" fill="none" xmlns="http://www.w3.org/2000/svg">
	<g clip-path="url(#clip0_362_147)">
		<path d="M50.2425 46.0248C46.6054 45.6488 42.6782 44.5958 40.3015 43.3593C36.7339 41.5033 34.147 37.6791 33.2606 32.951C32.9756 31.4306 32.936 26.8025 33.1956 25.3495C34.1011 20.2815 36.2706 15.9891 39.8096 12.2634L40.6734 11.354L37.8868 11.3805C34.8726 11.4069 34.1991 11.3106 33.3319 10.7262C32.5177 10.1776 31.9978 9.00545 32 7.724C32.0018 6.69797 32.4056 5.96689 33.7225 4.60573L34.8498 3.44043L48.9618 3.49406C64.6183 3.5534 63.8152 3.513 66.4112 4.38093C72.8095 6.52071 77.5287 12.2229 78.4819 18.966C78.7088 20.5711 78.6722 24.4965 78.4145 26.2027C77.3886 32.9943 74.3159 38.4146 69.5738 41.7973C67.0145 43.623 62.8187 45.1034 58.244 45.7951C56.4004 46.0736 51.9458 46.2027 50.2425 46.0264L50.2425 46.0248ZM56.7082 38.0697C60.1098 37.414 62.9947 35.168 64.222 32.2198C65.1019 30.1062 65.8469 26.8466 66.0492 24.2252C66.4778 18.6715 64.5002 13.7935 61.1587 12.1621C59.9337 11.564 59.0381 11.3628 57.6007 11.3628C55.4184 11.3628 54.0455 11.8997 52.4591 13.3735C49.8169 15.8281 48.4853 19.217 47.6816 25.532C47.2281 29.0954 47.4584 32.4577 48.2886 34.3928C48.6413 35.2148 49.4367 36.3156 50.0123 36.7781C51.5266 37.995 54.31 38.532 56.7082 38.0697V38.0697Z" fill="white" stroke="white" stroke-width="0.1216"/>
		<path d="M89.1084 44.6824C87.737 44.6371 85.6518 44.5925 84.4745 44.5835L82.334 44.5684L81.8137 44.2191C81.2063 43.8111 80.6499 43.0351 80.4592 42.3299C79.9557 40.4688 81.0881 38.009 82.8466 37.1437L83.4528 36.8454H90.7503C97.3523 36.8454 98.1636 36.8228 99.264 36.6191C101.545 36.1941 103.562 35.3774 105.077 34.265C105.767 33.7584 106.946 32.4222 107.623 31.378C110.133 27.5107 110.834 22.1182 109.402 17.6897C108.215 14.0171 106.026 12.1447 102.237 11.5614C100.782 11.3376 98.2989 11.2144 97.7486 11.3388L97.3278 11.4341L96.8771 14.8355C96.6292 16.7063 96.3952 18.433 96.3571 18.6726L96.2879 19.108L96.9377 19.054C98.4555 18.9282 99.7592 19.7487 100.293 21.1657C100.521 21.7723 100.556 22.0672 100.517 23.0409C100.462 24.4021 100.136 25.2478 99.3329 26.1195C98.5906 26.9247 97.8835 27.1803 96.0503 27.3057C94.0958 27.4395 88.3092 27.4398 86.2401 27.3062C84.1786 27.1731 83.7934 26.9763 83.1321 25.7167C82.8717 25.2209 82.846 25.0263 82.8579 23.6491C82.8757 21.6068 83.6612 14.7523 84.5653 8.75005C84.8243 7.0301 84.948 6.53206 85.3007 5.7876C86.361 3.54952 89.0447 2 91.8607 2C93.6546 2 95.7924 2.81627 97.0968 3.99922L97.8487 4.68113L99.1036 4.31526C100.851 3.80597 102.266 3.58101 104.251 3.49737C112.393 3.15419 119.847 7.48986 122.379 14.0418C124.452 19.4056 124.123 25.8812 121.496 31.44C118.109 38.6043 111.759 43.0791 103.217 44.3204C99.8826 44.8048 95.8827 44.908 89.1083 44.6843L89.1084 44.6824Z" fill="white" stroke="white" stroke-width="0.121624"/>
		<path d="M128.086 28.1782C128.323 26.1261 128.591 24.099 129.062 20.7895C129.722 16.1539 129.877 14.3818 129.829 12.0326L129.791 10.2082L127.997 10.034C126.661 9.90398 126.203 9.81778 126.203 9.6957C126.203 9.60575 126.347 9.19144 126.522 8.77539C127.481 6.49293 129.383 4.54538 131.859 3.30921C136.275 1.10412 140.943 2.02443 143.293 5.5638C143.67 6.13247 143.746 6.37866 143.901 7.5418C144.296 10.5146 144.096 13.2291 142.99 19.8773C142.596 22.252 142.211 24.9064 142.136 25.776C142.061 26.6456 141.961 27.6309 141.916 27.9653L141.832 28.5734L139.278 28.6474C137.873 28.6883 134.765 28.7295 132.372 28.7386L128.019 28.7575L128.086 28.1797L128.086 28.1782Z" fill="white" stroke="white" stroke-width="0.121624"/>
		<path d="M164.515 45.8291C161.962 45.3608 158.743 43.9595 156.697 42.4259C153.581 40.0906 151.338 36.8885 150.4 33.4379C150.175 32.6097 150.127 32.0396 150.077 29.6068C150.011 26.4043 150.093 25.379 150.885 19.5583C151.337 16.2341 151.549 14.3015 151.666 12.4218L151.717 11.5952L151.1 10.8567L150.483 10.1182L148.923 10.2043L147.364 10.2905L148.109 8.97202C149.076 7.2622 149.771 6.29088 150.813 5.19388C151.852 4.10012 152.925 3.37483 154.358 2.79834C157.131 1.68251 159.314 1.7544 161.952 3.04817C163.497 3.8063 164.885 5.14868 165.519 6.49782C166.201 7.94878 166.261 8.39261 166.179 11.3536C166.1 14.2065 166.02 14.9055 165.123 20.5454C164.274 25.8875 164.12 27.3499 164.117 30.093C164.114 32.743 164.23 33.6555 164.692 34.6318C165.748 36.8636 167.764 38.0552 170.474 38.0486C172.465 38.0448 174.077 37.4896 175.548 36.3042C176.919 35.1998 177.56 34.0801 178.144 31.7663C178.894 28.798 179.184 26.6522 180.147 16.9575C180.316 15.2517 180.528 13.3362 180.618 12.7007C180.708 12.0652 180.773 11.5352 180.764 11.5228C180.754 11.5115 179.721 11.4661 178.467 11.4245C177.119 11.3796 175.91 11.2763 175.51 11.1724C173.974 10.7723 173.165 9.7313 173.055 8.01214C173.003 7.21172 173.034 7.03727 173.33 6.43069C173.534 6.01536 174.092 5.30106 174.759 4.60321L175.855 3.45752L183.898 3.45821L191.941 3.45879L192.546 3.91716C193.31 4.49539 193.996 5.39295 194.333 6.25491C194.728 7.26582 194.776 9.58863 194.445 11.6671C193.952 14.7565 193.58 17.6067 192.972 22.9682C192.553 26.6547 192.16 29.1193 191.708 30.9053C190.681 34.9539 189.011 38.0923 186.713 40.2895C183.66 43.2078 179.58 44.9283 173.819 45.7266C171.688 46.0218 165.913 46.0856 164.515 45.829L164.515 45.8291Z" fill="white" stroke="url(#paint0_linear_362_147)" stroke-width="0.121624"/>
		<path d="M215.719 46.072C212.407 45.7712 208.517 44.8218 206.04 43.7108C202.645 42.1873 199.933 38.8623 198.755 34.7769C197.874 31.7258 197.762 27.7724 198.459 24.3158C199.339 19.9466 201.834 15.2733 204.884 12.2788C205.291 11.8795 205.624 11.5089 205.624 11.4552C205.624 11.4016 204.351 11.3657 202.796 11.3755C199.765 11.3944 199.235 11.3184 198.397 10.7443C197.64 10.2255 197.14 9.20757 197.022 7.94158C196.923 6.88652 197.327 6.12979 198.783 4.64845L199.965 3.44531L214.075 3.49214C226.592 3.53334 228.297 3.56127 229.177 3.73967C232.77 4.46753 236.194 6.36043 238.692 8.99926C241.428 11.8889 243.002 15.1536 243.513 18.9954C243.719 20.543 243.744 23.6659 243.564 25.3242C242.679 33.4466 238.408 40.1941 232.253 43.1962C230.004 44.293 225.789 45.4738 222.59 45.9036C221.581 46.0393 216.679 46.1595 215.719 46.0722L215.719 46.072ZM221.896 38.0497C224.785 37.4574 227.25 35.7389 228.736 33.2804C229.613 31.8293 230.73 27.844 231.035 25.0807C231.683 19.195 229.784 14.0341 226.303 12.2232C225.118 11.6066 224.052 11.3559 222.599 11.3519C220.715 11.3481 219.409 11.7979 217.952 12.9575C214.889 15.3946 213.154 20.0101 212.545 27.3429C212.161 31.9725 213.211 35.5332 215.395 37.0049C217.036 38.1105 219.594 38.5216 221.896 38.0497V38.0497Z" fill="white" stroke="white" stroke-width="0.121624"/>
		<path d="M14.75 35.4V29.4H8.25V22.2H14.75V16.15H22V22.2H28.5V29.4H22V35.4H14.75Z" fill="white"/>
	</g>
	<defs>
		<linearGradient id="paint0_linear_362_147" x1="147.256" y1="24.0034" x2="194.726" y2="24.0034" gradientUnits="userSpaceOnUse">
			<stop stop-color="white"/>
		</linearGradient>
		<clipPath id="clip0_362_147">
			<rect width="250" height="48" fill="white"/>
		</clipPath>
	</defs>
</svg>
